<svg viewBox="0 0 1200 675" xmlns="http://www.w3.org/2000/svg">
  <defs>
    <linearGradient id="bg" x1="0%" y1="0%" x2="100%" y2="100%">
      <stop offset="0%" stop-color="#090F1C"/>
      <stop offset="60%" stop-color="#111D32"/>
      <stop offset="100%" stop-color="#1B2D4F"/>
    </linearGradient>
    <radialGradient id="glowKZ" cx="50%" cy="50%" r="50%">
      <stop offset="0%" stop-color="#C9A84C" stop-opacity="0.45"/>
      <stop offset="60%" stop-color="#C9A84C" stop-opacity="0.08"/>
      <stop offset="100%" stop-color="#C9A84C" stop-opacity="0"/>
    </radialGradient>
    <radialGradient id="glowGE" cx="50%" cy="50%" r="50%">
      <stop offset="0%" stop-color="#C9A84C" stop-opacity="0.35"/>
      <stop offset="60%" stop-color="#C9A84C" stop-opacity="0.06"/>
      <stop offset="100%" stop-color="#C9A84C" stop-opacity="0"/>
    </radialGradient>
    <radialGradient id="centerGlow" cx="50%" cy="50%" r="50%">
      <stop offset="0%" stop-color="#2A4070" stop-opacity="0.6"/>
      <stop offset="100%" stop-color="#2A4070" stop-opacity="0"/>
    </radialGradient>
    <linearGradient id="arcGrad" x1="0%" y1="0%" x2="100%" y2="0%">
      <stop offset="0%" stop-color="#C9A84C" stop-opacity="0.8"/>
      <stop offset="50%" stop-color="#E8C96A" stop-opacity="1"/>
      <stop offset="100%" stop-color="#C9A84C" stop-opacity="0.8"/>
    </linearGradient>
    <filter id="blur4"><feGaussianBlur stdDeviation="4"/></filter>
    <filter id="blur12"><feGaussianBlur stdDeviation="12"/></filter>
    <filter id="blur20"><feGaussianBlur stdDeviation="20"/></filter>
    <pattern id="dotGrid" x="0" y="0" width="48" height="48" patternUnits="userSpaceOnUse">
      <circle cx="24" cy="24" r="1" fill="#C9A84C" opacity="0.10"/>
    </pattern>
    <pattern id="fineGrid" x="0" y="0" width="80" height="80" patternUnits="userSpaceOnUse">
      <line x1="0" y1="0" x2="80" y2="0" stroke="#3A5070" stroke-width="0.3" opacity="0.4"/>
      <line x1="0" y1="0" x2="0" y2="80" stroke="#3A5070" stroke-width="0.3" opacity="0.4"/>
    </pattern>
  </defs>
  <rect width="1200" height="675" fill="url(#bg)"/>
  <rect width="1200" height="675" fill="url(#fineGrid)" opacity="0.5"/>
  <rect width="1200" height="675" fill="url(#dotGrid)"/>
  <ellipse cx="600" cy="338" rx="420" ry="280" fill="url(#centerGlow)"/>
  <ellipse cx="345" cy="340" rx="220" ry="220" fill="url(#glowKZ)" filter="url(#blur20)"/>
  <ellipse cx="855" cy="340" rx="170" ry="170" fill="url(#glowGE)" filter="url(#blur20)"/>
  <path d="M 345 340 C 450 210, 750 210, 855 340" stroke="#C9A84C" stroke-width="8" fill="none" opacity="0.12" filter="url(#blur12)"/>
  <path d="M 345 340 C 450 210, 750 210, 855 340" stroke="url(#arcGrad)" stroke-width="1.5" fill="none" opacity="0.9"/>
  <path d="M 345 340 C 450 210, 750 210, 855 340" stroke="#E8C96A" stroke-width="0.6" fill="none" opacity="0.4" stroke-dasharray="3 14"/>
  <circle cx="600" cy="218" r="3.5" fill="#E8C96A" opacity="0.7"/>
  <circle cx="600" cy="218" r="8" fill="none" stroke="#C9A84C" stroke-width="0.8" opacity="0.4"/>
  <circle cx="345" cy="340" r="110" fill="none" stroke="#C9A84C" stroke-width="0.5" opacity="0.12"/>
  <circle cx="345" cy="340" r="82" fill="none" stroke="#C9A84C" stroke-width="0.7" opacity="0.22"/>
  <circle cx="345" cy="340" r="58" fill="none" stroke="#C9A84C" stroke-width="1" opacity="0.35"/>
  <circle cx="345" cy="340" r="36" fill="#C9A84C" opacity="0.1" filter="url(#blur4)"/>
  <circle cx="345" cy="340" r="24" fill="#1B2D4F" stroke="#C9A84C" stroke-width="1.5" opacity="0.9"/>
  <circle cx="345" cy="340" r="7" fill="#E8C96A"/>
  <line x1="345" y1="282" x2="345" y2="270" stroke="#C9A84C" stroke-width="1" opacity="0.5"/>
  <line x1="403" y1="340" x2="415" y2="340" stroke="#C9A84C" stroke-width="1" opacity="0.5"/>
  <line x1="345" y1="398" x2="345" y2="410" stroke="#C9A84C" stroke-width="1" opacity="0.5"/>
  <line x1="287" y1="340" x2="275" y2="340" stroke="#C9A84C" stroke-width="1" opacity="0.5"/>
  <circle cx="855" cy="340" r="88" fill="none" stroke="#C9A84C" stroke-width="0.5" opacity="0.12"/>
  <circle cx="855" cy="340" r="64" fill="none" stroke="#C9A84C" stroke-width="0.7" opacity="0.22"/>
  <circle cx="855" cy="340" r="44" fill="none" stroke="#C9A84C" stroke-width="1" opacity="0.35"/>
  <circle cx="855" cy="340" r="27" fill="#C9A84C" opacity="0.1" filter="url(#blur4)"/>
  <circle cx="855" cy="340" r="18" fill="#1B2D4F" stroke="#C9A84C" stroke-width="1.5" opacity="0.9"/>
  <circle cx="855" cy="340" r="6" fill="#E8C96A"/>
  <text x="345" y="448" text-anchor="middle" fill="#C9A84C" font-family="Georgia, serif" font-size="11" letter-spacing="5" opacity="0.85">KAZAKHSTAN</text>
  <line x1="290" y1="440" x2="400" y2="440" stroke="#C9A84C" stroke-width="0.5" opacity="0.3"/>
  <text x="855" y="420" text-anchor="middle" fill="#C9A84C" font-family="Georgia, serif" font-size="11" letter-spacing="5" opacity="0.85">GEORGIA</text>
  <line x1="812" y1="412" x2="898" y2="412" stroke="#C9A84C" stroke-width="0.5" opacity="0.3"/>
  <line x1="40" y1="40" x2="100" y2="40" stroke="#C9A84C" stroke-width="1.2" opacity="0.35"/>
  <line x1="40" y1="40" x2="40" y2="100" stroke="#C9A84C" stroke-width="1.2" opacity="0.35"/>
  <circle cx="40" cy="40" r="2.5" fill="#C9A84C" opacity="0.5"/>
  <line x1="1160" y1="635" x2="1100" y2="635" stroke="#C9A84C" stroke-width="1.2" opacity="0.35"/>
  <line x1="1160" y1="635" x2="1160" y2="575" stroke="#C9A84C" stroke-width="1.2" opacity="0.35"/>
  <circle cx="1160" cy="635" r="2.5" fill="#C9A84C" opacity="0.5"/>
  <line x1="1160" y1="40" x2="1100" y2="40" stroke="#C9A84C" stroke-width="1.2" opacity="0.2"/>
  <line x1="1160" y1="40" x2="1160" y2="100" stroke="#C9A84C" stroke-width="1.2" opacity="0.2"/>
  <line x1="40" y1="635" x2="100" y2="635" stroke="#C9A84C" stroke-width="1.2" opacity="0.2"/>
  <line x1="40" y1="635" x2="40" y2="575" stroke="#C9A84C" stroke-width="1.2" opacity="0.2"/>
  <line x1="140" y1="550" x2="1060" y2="550" stroke="#C9A84C" stroke-width="0.4" opacity="0.15"/>
  <circle cx="420" cy="570" r="2" fill="#C9A84C" opacity="0.4"/>
  <line x1="430" y1="570" x2="520" y2="570" stroke="#C9A84C" stroke-width="0.5" opacity="0.25"/>
  <circle cx="780" cy="570" r="2" fill="#C9A84C" opacity="0.4"/>
  <line x1="680" y1="570" x2="770" y2="570" stroke="#C9A84C" stroke-width="0.5" opacity="0.25"/>
  <line x1="160" y1="80" x2="160" y2="595" stroke="#C9A84C" stroke-width="0.3" opacity="0.08"/>
  <line x1="1040" y1="80" x2="1040" y2="595" stroke="#C9A84C" stroke-width="0.3" opacity="0.08"/>
</svg>
