<svg xmlns="http://www.w3.org/2000/svg" viewBox="0 0 100 100" width="100" height="100">
  <defs>
    <linearGradient id="gS" x1="0%" y1="0%" x2="100%" y2="100%">
      <stop offset="0%" style="stop-color:#C9A84C"/><stop offset="100%" style="stop-color:#E8C96A"/>
    </linearGradient>
    <linearGradient id="tS" x1="0%" y1="0%" x2="100%" y2="100%">
      <stop offset="0%" style="stop-color:#0D9488"/><stop offset="100%" style="stop-color:#2DD4BF"/>
    </linearGradient>
    <linearGradient id="bS" x1="0%" y1="0%" x2="100%" y2="0%">
      <stop offset="0%" style="stop-color:#C9A84C"/><stop offset="100%" style="stop-color:#0D9488"/>
    </linearGradient>
  </defs>
  <rect width="100" height="100" rx="20" fill="#0F2044"/>

  <!-- KZ hex -->
  <polygon points="30,8 50,19 50,42 30,53 10,42 10,19"
           fill="#112244" stroke="url(#gS)" stroke-width="2"/>
  <line x1="30" y1="14" x2="30" y2="19" stroke="#C9A84C" stroke-width="2" stroke-linecap="round"/>
  <line x1="30" y1="46" x2="30" y2="50" stroke="#C9A84C" stroke-width="2" stroke-linecap="round"/>
  <line x1="18" y1="30" x2="23" y2="30" stroke="#C9A84C" stroke-width="2" stroke-linecap="round"/>
  <line x1="37" y1="30" x2="42" y2="30" stroke="#C9A84C" stroke-width="2" stroke-linecap="round"/>
  <line x1="20" y1="17" x2="24" y2="21" stroke="#C9A84C" stroke-width="1.5" stroke-linecap="round"/>
  <line x1="36" y1="39" x2="40" y2="43" stroke="#C9A84C" stroke-width="1.5" stroke-linecap="round"/>
  <line x1="36" y1="17" x2="40" y2="21" stroke="#C9A84C" stroke-width="1.5" stroke-linecap="round"/>
  <line x1="20" y1="39" x2="24" y2="43" stroke="#C9A84C" stroke-width="1.5" stroke-linecap="round"/>
  <circle cx="30" cy="30" r="7.5" fill="none" stroke="#C9A84C" stroke-width="1.5"/>
  <circle cx="30" cy="30" r="3" fill="#C9A84C"/>

  <!-- Bridge -->
  <rect x="52" y="28" width="10" height="4" rx="2" fill="url(#bS)" opacity="0.8"/>
  <circle cx="55.5" cy="30" r="2" fill="#C9A84C" opacity="0.8"/>
  <circle cx="58.5" cy="30" r="2" fill="#0D9488" opacity="0.8"/>

  <!-- GE hex -->
  <polygon points="70,8 90,19 90,42 70,53 50,42 50,19"
           fill="#0C2035" stroke="url(#tS)" stroke-width="2"/>
  <rect x="68" y="16" width="4.5" height="22" rx="1.5" fill="#0D9488"/>
  <rect x="60" y="27" width="21" height="4.5" rx="1.5" fill="#0D9488"/>
  <rect x="61.5" y="17.5" width="5" height="5" rx="1" fill="#0D9488" opacity="0.5"/>
  <rect x="74" y="17.5" width="5" height="5" rx="1" fill="#0D9488" opacity="0.5"/>
  <rect x="61.5" y="34.5" width="5" height="5" rx="1" fill="#0D9488" opacity="0.5"/>
  <rect x="74" y="34.5" width="5" height="5" rx="1" fill="#0D9488" opacity="0.5"/>
  <circle cx="70.5" cy="29" r="2.8" fill="#0C2035"/>
  <circle cx="70.5" cy="29" r="1.6" fill="#0D9488"/>

  <!-- INTERLEX text below -->
  <text x="50" y="74" font-family="Georgia,serif" font-size="13.5" font-weight="700"
        text-anchor="middle" letter-spacing="0.5" fill="white">INTER</text>
  <text x="50" y="90" font-family="Georgia,serif" font-size="13.5" font-weight="700"
        text-anchor="middle" letter-spacing="0.5" fill="url(#gS)">LEX</text>
</svg>